<?xml version="1.0" encoding="utf-8"?>
<!-- Generator: Adobe Illustrator 19.0.0, SVG Export Plug-In . SVG Version: 6.00 Build 0)  -->
<svg version="1.1" id="Layer_1" xmlns="http://www.w3.org/2000/svg" xmlns:xlink="http://www.w3.org/1999/xlink" x="0px" y="0px"
	 viewBox="0 0 528 266" style="enable-background:new 0 0 528 266;" xml:space="preserve">
<style type="text/css">
	.st0{fill:#010101;}
</style>
<path class="st0" d="M524.3-0.7c-7.2,7.6-14.5,15.1-21.9,22.5c-4.6,4.6-9.2,9.2-13.8,13.7c-4,3.9-7.8,8-11.7,12
	c-3.1,3.2-6.4,6.4-9.3,9.8c-4.7,5.4-9.4,10.8-13.9,16.4c-1.8,2.2-3.7,4.4-5.4,6.7c-1.2,1.7-2.4,3.4-3.6,5.1
	c-3.9,5.6-7.7,11.3-11.5,16.9c-3.4,5-6.3,10.4-9.9,15.3c-2,2.5-4,5-6.3,7.3c-2.2-2-4.1-4.1-6-6.3c-3-4.2-5.5-8.8-7.8-13.5
	c-2.4-4.8-4.7-9.7-6.8-14.6c-2.2-5.3-4.1-10.6-6.1-15.9c-1.4-3.8-2.8-7.5-4.1-11.3c-2.1-6.3-4.3-12.6-6.5-18.9
	c-1.3-3.7-2.6-7.5-4.4-11c-0.6-1.2-1.2-2.4-1.8-3.6c-1.1-2.1-2.5-4-4-5.8c-3-3.5-7.4-5.2-11.9-5.4c-1.1,0.1-2.2,0.2-3.2,0.5
	c-1.9,0.4-3.4,1.6-4.8,2.9c-1.4,1.3-2.2,3.1-2.8,4.9c-1,1.3-1.9,2.7-2.7,4c-2.6,3-5.1,6-7.5,9.2c-10,12.1-18.6,25.2-27.7,37.9
	c-8.5,11.9-16.7,23.9-25.5,35.6c-0.4,0.6-0.9,1.1-1.3,1.7c-3.3,4.2-6.8,8.4-10.4,12.4c-3.8,4.2-7.9,8.1-12.3,11.6
	c-3.8,2.8-7.7,5.4-12.1,7.3c-3.9,1.5-7.8,2.7-11.9,3.3c-3,0.3-6,0.3-9.1,0c-6.3-1-12.4-2.7-18.3-5.1c-3.3-1.4-6.5-3-9.8-4.4
	c-3.7-1.7-7.5-3.4-11.2-5.2c-7.4-3.6-14.9-6.7-22.6-9.6c-7.6-2.8-15.3-4.8-23.3-6.1c-1-0.2-2-0.3-3-0.5c0.5-0.7,1-1.5,1.4-2.2
	c3.7-5.6,7-11.5,10.3-17.3c1.4-2.5,2.8-5,4-7.6c1.4-3.2,2.8-6.3,4.2-9.5c0.5-1.2,0.9-2.4,1.4-3.5c0.5-1.5,1.1-2.9,1.3-4.5
	c0.5-3.2,0.6-6.4,0.7-9.7c0.2-3.9-2.8-7.5-6.4-8.5c-3.7-1-8,0.6-9.9,4c-0.3,0.5-0.5,1-0.7,1.5c-0.7,1.1-1.1,2.4-1.4,3.7
	c0,0.1-0.1,0.2-0.1,0.3c-0.3,0.6-0.5,1.1-0.8,1.7c-0.4,0.7-0.7,1.4-1,2.2c-1.3,2.6-2.7,5.2-4.1,7.7c-1.9,3.3-3.8,6.7-5.7,10
	c-2.3,4-4.5,8.1-6.7,12.2c-3,5.5-6,10.9-9,16.4c-0.5,0.9-0.9,1.7-1.4,2.6c-0.4,0-0.8,0.1-1.1,0.1c0.1-0.4,0.2-0.9,0.2-1.3
	c1.3-7.2,2.6-14.4,3.9-21.6c2.9-15.8,6.6-31.6,12.3-46.7c0.3-0.2,0.7-0.5,1-0.7c3.4-2.4,6.7-5,9.9-7.7c3-2.4,5.9-5,8.4-7.9
	c1.5-1.8,3.1-3.6,4.2-5.6c1.7-3,2.2-6,2.5-9.4c0.1-1.1-0.4-3.5-0.8-4.8c-0.1-0.2-0.2-0.5-0.3-0.8c-0.4-1.3-0.9-2.5-1.7-3.6
	c-0.8-1.4-1.7-2.4-2.9-3.4c-1.8-1.5-4.2-3.4-6.7-3.8c-1.5-0.3-3-0.6-4.6-0.5c-1.8,0.1-3.2,0.3-4.7,0.9c-1.7,0.7-3,1.2-4.4,2.1
	c-1.4,0.9-2.6,1.9-3.8,2.9c-1.8,1.5-3.3,3.5-4.7,5.4c-1.2,1.6-2.1,3.2-3.1,4.9c-4,7.3-6.9,15.2-9.4,23.2c-1.2,4-2.3,8-3.2,12.1
	c-0.9,0.9-1.8,1.8-2.7,2.8c-3,3.1-5.9,6.2-8.9,9.3c-2,2.2-4.1,4.3-6.1,6.5c-0.7,0.7-1.3,1.4-2,2.1c-1.6,1.6-3.4,3.2-4.2,5.5
	c-0.2,0.5,0.4,0.8,0.8,0.6c1.1-0.5,2-1.1,3-1.8c0,0,0,0,0,0c-0.6,0.2-1.2,0.4-1.8,0.5c1.8-1.3,3.8-2.2,5.7-3.3
	c1.3-0.8,2.6-1.5,4-2.3c2.5-1.5,5.1-3,7.6-4.5c0.6-0.3,1.1-0.7,1.7-1c-0.5,2.7-0.9,5.4-1.3,8.2c-0.6,3.8-1.2,7.5-1.6,11.3
	c-0.7,6.2-1.3,12.5-2,18.7c-0.5,4.3-1,8.7-1.4,13c-0.1,1.5-0.2,3-0.3,4.5c-0.9,0.3-1.7,0.6-2.6,0.9c-7.6,2.6-14.9,6.3-21.7,10.6
	c-6.7,4.2-12.9,9.3-18.7,14.8c-5.9,5.6-11.1,11.9-16,18.3c-5.9,7.7-10.7,16.1-15,24.8c-4.8,9.7-8.6,19.9-11.5,30.3
	c-1.5,5.3-2.2,10.9-2.9,16.3C7.1,240.9,7,243.5,7,246c0,0.9,0.2,1.9,0.4,2.8c0.2,1.6,0.4,3.2,0.7,4.8c0.4,2.2,1.2,4.6,2.5,6.4
	c1,1.5,2.3,3,3.9,3.9c2.1,1.2,4.8,1.6,7.2,0.9c1.2-0.3,2.3-0.8,3.4-1.5c1-0.7,1.8-1.5,2.7-2.2c0.9-0.8,1.6-1.9,2.3-2.9
	c0.4-0.6,0.8-1.3,1.1-2c2.4-2.4,4.8-4.9,7.1-7.5c0.6-0.7,1.4-1.3,2.1-2c0.7-0.7,1.4-1.3,2-2c1.6-1.6,3.1-3.2,4.7-4.8
	c5.5-5.8,10.8-11.8,16-17.9c3.9-4.6,7.6-9.3,11.3-14.1c-0.6,1.9-1.1,3.9-1.6,5.8c-0.9,3.4-1.7,6.9-2.4,10.4
	c-0.8,4.1-1.5,8.4-1.8,12.6c-0.1,1.4-0.2,2.8-0.3,4.2c-0.1,2.5,0.1,4.9,0.5,7.4c0.3,2,1,4.1,2,5.8c1.9,3.3,5.2,5.1,8.8,6.1
	c2.9,0.8,6,0.4,8.5-1.1c1.7-1,3-2.3,4-4c1-1.7,1.5-3.6,1.5-5.6c-0.1-0.8-0.2-1.6-0.3-2.4c-0.4-5.9,0.5-11.8,1.2-17.7
	c0.8-4.8,1.5-9.7,2.5-14.5c1.2-5.7,2.4-11.4,3.5-17.1c0.4-2,0.8-4,1.1-6c0.5-2,1.1-3.9,1.7-5.9c2-7.2,4.2-14.3,6.6-21.4
	c1.1-3.1,2.1-6.3,3.2-9.4c1.8-2.5,3.5-5,5.3-7.5c3.7-5.2,7.4-10.4,11.1-15.6c0.2-0.3,0.5-0.6,0.7-1c2.7,0.1,5.4,0.4,8.1,0.7
	c6.2,0.9,12.3,2.2,18.3,4c5.8,1.8,11.6,3.8,17.3,6.2c3.3,1.4,6.6,2.9,9.8,4.4c3.7,1.7,7.5,3.3,11.3,5c3.6,1.7,7.2,3.3,10.9,4.8
	c3.8,1.5,7.7,2.7,11.6,3.8c3.9,1.1,7.8,1.8,11.8,2.2c4.1,0.4,8.3-0.1,12.4-0.6c7.7-1.1,15.1-4.2,21.7-8.2
	c13.6-8.3,24-20.6,33.3-33.3c4.8-6.6,9.4-13.3,13.9-20.1c4.2-6.3,8.4-12.6,12.6-19c3-4.6,6-9.2,9-13.8c3.4-5.2,7-10.2,10.7-15.2
	c1.5-2,3.1-3.9,4.9-5.7c1.3-1.3,2.6-2.6,3.9-3.8c0.2,0.8,0.4,1.6,0.6,2.3c1.2,4,2,8.1,3,12.1c0.7,3,1.7,5.9,2.5,8.8
	c1,3.2,1.9,6.4,2.9,9.6c0.6,1.9,1.4,3.8,2.1,5.7c1.3,3.6,2.7,7.1,4,10.7c2.1,5.5,4.6,10.8,7.1,16c3.4,6.9,7.1,13.9,11.5,20.2
	c5.2,7.5,11.4,14.1,18.7,19.6c4,3,9,4.1,13.9,4.2c1.6,0,3.8-0.4,5.2-0.6c0.8-0.1,1.5-0.3,2.3-0.6c1.5-0.5,3.1-1.3,4.5-2
	c1.6-0.9,3.2-2.3,4.6-3.4c2.5-2,4.6-4.4,6.7-6.8c3-3.5,5.7-7.2,8.1-11.2c1.8-3,3.5-6.1,5.3-9.2c0.6-1.1,1.3-2.2,1.9-3.3
	c1.6-2.9,3.2-5.7,4.8-8.6c1.9-3.4,3.8-6.9,5.7-10.3c0.7-1.3,1.4-2.7,2.1-4c3.3-5.8,6.5-11.7,9.7-17.6c1.9-3.6,3.8-7.1,5.8-10.6
	c3.8-6.4,7.5-12.7,11.2-19.1c4.9-8.4,10.1-16.7,15.3-25C515.4,12.8,519.7,5.9,524.3-0.7C524.4-0.7,524.4-0.7,524.3-0.7
	C524.3-0.7,524.3-0.7,524.3-0.7L524.3-0.7z M342.6,52.7c-0.1,0.1-0.2,0.3-0.3,0.4C342.4,52.9,342.5,52.8,342.6,52.7L342.6,52.7z
	 M83.6,77.5c0,0-0.1,0.1-0.1,0.1c0,0,0,0,0,0C83.5,77.6,83.5,77.5,83.6,77.5L83.6,77.5z M282.9,114.3c-0.1,0.2-0.3,0.4-0.4,0.5
	C282.6,114.6,282.8,114.4,282.9,114.3L282.9,114.3z M94.7,137.8c-0.3,4.4-0.6,8.9-0.9,13.3c-0.1,2.1-0.3,4.1-0.4,6.2
	c-1.8,3-3.5,6-5.3,9c-1.9,3.3-3.8,6.7-5.9,9.9c-3.8,6-7.6,12.1-11.5,18.1c-1.8,2.8-3.6,5.6-5.3,8.4c-1.8,2.9-3.8,5.6-5.7,8.4
	c-2.7,3.9-5.6,7.7-8.4,11.4c-2.8,3.6-5.6,7-8.7,10.4c-1.7,1.9-3.5,3.7-5.3,5.6c-1.7,1.7-3.4,3.6-5.2,5.1c-1.3,1-2.7,2-4.1,3
	c0.1-1.1,0.2-2.2,0.3-3.3c0.6-3.6,1.5-7.1,2.4-10.6c1.1-4,2.1-8.1,3.3-12.1c2.2-7.7,5.1-15.2,8.2-22.6c4.9-11.3,11-22.1,18.4-32
	c5.5-6.9,11.7-13.3,18.7-18.8C84,143.5,89.2,140.4,94.7,137.8L94.7,137.8z M32.6,243.1c-0.1,0.1-0.2,0.1-0.2,0.2
	C32.5,243.2,32.6,243.2,32.6,243.1L32.6,243.1z"/>
</svg>
